<!DOCTYPE svg PUBLIC "-//W3C//DTD SVG 20010904//EN" "http://www.w3.org/TR/2001/REC-SVG-20010904/DTD/svg10.dtd">
<svg version="1.0" xmlns="http://www.w3.org/2000/svg" width="24px" height="24px" viewBox="0 0 240 240" preserveAspectRatio="xMidYMid meet">
<g id="layer1" fill="#b6bdc2" stroke="none">
 <path d="M52 177 c-48 -48 -52 -56 -52 -99 0 -60 11 -66 120 -66 109 0 120 6 120 66 0 44 -4 51 -53 100 -29 29 -59 52 -68 52 -8 0 -38 -24 -67 -53z m122 -37 c20 -22 36 -49 36 -60 0 -29 -29 -41 -62 -24 -24 13 -32 13 -56 0 -31 -16 -62 -6 -62 22 0 19 78 102 96 102 6 0 28 -18 48 -40z"/>
 </g>

</svg>