<!DOCTYPE svg PUBLIC "-//W3C//DTD SVG 20010904//EN" "http://www.w3.org/TR/2001/REC-SVG-20010904/DTD/svg10.dtd">
<svg version="1.0" xmlns="http://www.w3.org/2000/svg" width="24px" height="24px" viewBox="0 0 240 240" preserveAspectRatio="xMidYMid meet">
<g id="layer1" fill="#b6bdc2" stroke="none">
 <path d="M57 172 c-48 -49 -57 -63 -57 -94 0 -27 6 -41 22 -52 27 -19 69 -21 86 -4 9 9 15 9 24 0 17 -17 59 -15 86 4 16 11 22 25 22 52 0 32 -8 46 -58 95 -32 31 -60 57 -63 57 -2 0 -30 -26 -62 -58z m122 -27 c46 -50 51 -77 20 -99 -19 -13 -25 -13 -50 0 -26 13 -32 13 -58 0 -25 -13 -31 -13 -50 0 -11 8 -21 23 -21 32 0 19 88 112 106 112 6 0 30 -20 53 -45z"/>
 </g>

</svg>